<svg xmlns="http://www.w3.org/2000/svg" xmlns:xlink="http://www.w3.org/1999/xlink" viewBox="0,0,256,256" width="48px" height="48px"><defs><linearGradient x1="23.807" y1="43.334" x2="23.807" y2="4.998" gradientUnits="userSpaceOnUse" id="color-1"><stop offset="0" stop-color="#0057ff"></stop><stop offset="0.147" stop-color="#0300d1"></stop><stop offset="0.432" stop-color="#1700df"></stop><stop offset="0.824" stop-color="#0003f5"></stop><stop offset="1" stop-color="#1300ff"></stop></linearGradient></defs><g fill="url(#color-1)" fill-rule="nonzero" stroke="none" stroke-width="1" stroke-linecap="butt" stroke-linejoin="miter" stroke-miterlimit="10" stroke-dasharray="" stroke-dashoffset="0" font-family="none" font-weight="none" font-size="none" text-anchor="none" style="mix-blend-mode: normal"><g transform="scale(5.33333,5.33333)"><path d="M40.03,5.874c-0.065,-0.514 -0.514,-0.916 -1.031,-0.873c0,0 -24.377,0.888 -24.458,0.881c-0.267,-0.034 -0.514,0.056 -0.71,0.214l-8.435,4.601c-0.358,0.195 -0.562,0.59 -0.514,0.996l3.653,30.759c0.039,0.329 0.239,0.618 0.534,0.771c0.144,0.074 0.302,0.111 0.459,0.111c0.165,0 0.33,-0.041 0.479,-0.122l3.775,-2.06l3.861,1.889c0.38,0.186 0.835,0.112 1.137,-0.183l3.235,-3.152l3.878,1.981c0.372,0.188 0.824,0.129 1.132,-0.154l3.081,-2.831l4.115,1.764c0.387,0.166 0.835,0.071 1.122,-0.233l2.577,-2.737l3.378,1.608c0.308,0.147 0.667,0.128 0.956,-0.052c0.289,-0.178 0.468,-0.491 0.475,-0.83c0.191,-9.482 -2.581,-31.419 -2.699,-32.348zM12.197,17.732l1.46,-4.809c0.07,-0.232 0.408,-0.2 0.433,0.041l2.936,27.548l-2.21,-1.081zM8.041,11.533l3.513,-1.916c0.446,-0.243 0.962,0.177 0.815,0.663l-1.627,5.359l-2.855,-3.232c-0.241,-0.274 -0.166,-0.7 0.154,-0.874zM7.725,15.244l2.498,2.828l2.575,21.339l-2.452,1.337l-3.008,-25.331c-0.025,-0.216 0.243,-0.337 0.387,-0.173zM38.122,35.376c-0.393,-0.187 -0.861,-0.099 -1.159,0.218l-2.596,2.759l-4.067,-1.744c-0.362,-0.155 -0.781,-0.084 -1.071,0.183l-3.044,2.798l-3.898,-1.991c-0.382,-0.195 -0.845,-0.125 -1.152,0.174l-2.165,2.109l-3.307,-31.026c-0.054,-0.51 0.334,-0.959 0.847,-0.979l20.833,-0.81c0.461,-0.018 0.858,0.315 0.913,0.773c0.619,5.119 2.391,20.442 2.479,28.78zM36,23c0,1.105 -0.895,2 -2,2c-1.104,0 -2,-0.895 -2,-2c0,-1.105 0.896,-2 2,-2c1.105,0 2,0.895 2,2zM25,25c0,1.105 -0.895,2 -2,2c-1.104,0 -2,-0.895 -2,-2c0,-1.105 0.896,-2 2,-2c1.105,0 2,0.895 2,2zM34.709,28.692c-0.281,0.774 -0.989,1.753 -2.64,2.753c0,0 -2.499,1.25 -5.575,0c-0.931,-0.378 -1.455,-0.903 -1.749,-1.396c-0.31,-0.52 0.183,-1.145 0.768,-0.991c0.805,0.212 2.033,0.419 3.672,0.369c1.895,-0.057 3.516,-0.87 4.514,-1.515c0.534,-0.345 1.227,0.183 1.01,0.78z"></path></g></g></svg>